<?xml version="1.0" standalone="no"?>
<!DOCTYPE svg PUBLIC "-//W3C//DTD SVG 20010904//EN"
 "http://www.w3.org/TR/2001/REC-SVG-20010904/DTD/svg10.dtd">
<svg version="1.0" xmlns="http://www.w3.org/2000/svg"
 width="4096.000000pt" height="1338.000000pt" viewBox="0 0 4096.000000 1338.000000"
 preserveAspectRatio="xMidYMid meet">

<g transform="translate(0.000000,1338.000000) scale(0.100000,-0.100000)"
fill="#000000" stroke="none">
<path d="M28625 13313 c-564 -24 -986 -237 -1233 -622 -86 -134 -171 -351
-212 -539 -42 -192 -70 -560 -70 -919 l0 -191 -77 -50 c-91 -58 -243 -135
-360 -182 l-83 -34 0 -108 0 -108 258 -2 257 -3 3 -1075 c3 -1099 -6 -1581
-32 -1750 -34 -217 -97 -311 -258 -385 -58 -26 -179 -55 -234 -55 l-34 0 0
-95 0 -96 48 6 c164 19 352 27 777 32 438 5 620 1 1173 -24 l142 -6 0 100 0
100 -127 7 c-280 14 -460 88 -514 212 -60 134 -69 360 -69 1807 l0 1227 440 0
440 0 0 240 0 240 -437 2 -438 3 -3 445 c-5 699 16 925 98 1096 70 144 170
226 330 270 87 24 270 24 360 1 198 -52 345 -182 453 -402 45 -91 48 -95 80
-94 17 0 40 3 49 7 9 4 103 126 208 272 187 259 191 266 185 305 -8 50 -12 55
-110 120 -259 172 -634 265 -1010 248z"/>
<path d="M40360 13291 c-31 -18 -273 -72 -500 -111 -305 -52 -523 -79 -687
-87 l-133 -6 0 -88 0 -87 68 -7 c108 -11 208 -32 259 -55 167 -74 183 -176
183 -1174 l0 -608 -32 6 c-326 68 -863 86 -1143 37 -369 -63 -668 -191 -933
-398 -420 -328 -665 -804 -738 -1433 -22 -193 -15 -581 14 -745 72 -407 226
-732 461 -978 298 -311 656 -471 1137 -509 404 -31 806 73 1157 301 l92 60 5
-166 5 -166 50 -17 c41 -14 54 -15 75 -5 123 61 741 158 1098 172 l162 6 0
102 0 101 -107 12 c-184 19 -293 66 -350 151 -30 44 -51 149 -63 311 -6 84
-10 997 -10 2400 1 2035 6 2618 26 2875 l6 80 -32 18 c-35 19 -48 20 -70 8z
m-1285 -2649 c50 -12 116 -30 148 -41 85 -30 227 -107 280 -153 l47 -40 0
-1323 0 -1323 -82 -40 c-170 -84 -314 -112 -559 -113 -316 0 -542 60 -751 200
-86 58 -217 190 -278 280 -185 274 -273 657 -256 1106 33 896 314 1349 906
1460 112 21 426 13 545 -13z"/>
<path d="M955 12452 l-870 -838 -3 -2269 -2 -2270 757 -757 758 -758 348 0
348 0 -7 -59 c-17 -156 77 -223 286 -202 141 15 144 -4 10 -66 -105 -49 -143
-80 -167 -138 l-18 -45 -1157 0 -1158 0 0 -1159 0 -1160 872 -840 871 -841
2311 1 2311 0 873 842 872 841 0 2165 0 2166 -763 763 -762 762 -648 0 -648 0
-132 82 c-98 61 -155 105 -221 170 -49 49 -86 91 -84 94 3 2 34 -2 69 -11 101
-23 261 -44 409 -54 101 -6 147 -14 183 -30 85 -37 169 -22 234 41 38 37 67
114 61 164 l-4 34 1153 0 1153 0 -1 1263 0 1262 -876 843 -877 842 -2305 0
-2306 -1 -870 -837z m6213 -154 l812 -782 0 -1113 0 -1113 -1155 0 c-635 0
-1155 -2 -1155 -5 0 -3 23 -33 50 -67 65 -80 90 -133 90 -189 0 -62 -28 -103
-84 -124 -45 -17 -47 -17 -104 4 -42 17 -102 26 -227 37 -201 16 -277 27 -405
59 -95 24 -111 29 -184 60 l-39 16 7 -33 c9 -49 90 -161 186 -258 89 -90 165
-144 395 -280 77 -46 154 -94 171 -107 l31 -23 514 0 514 0 697 -697 698 -698
-1 -2085 -1 -2085 -814 -782 -815 -783 -2217 0 -2217 0 -817 788 -818 787 0
1008 0 1007 1150 0 1150 0 -41 37 c-50 46 -69 81 -69 131 0 53 34 101 95 134
48 27 96 39 275 73 155 30 288 113 360 224 25 40 29 54 21 69 -24 45 -87 43
-187 -8 -160 -80 -363 -130 -532 -130 -126 0 -169 44 -138 141 25 74 59 148
94 199 l31 45 -404 3 -403 2 -701 707 -701 706 0 2171 0 2171 813 782 812 782
2225 0 2225 1 813 -782z"/>
<path d="M1243 12148 l-753 -723 0 -2085 0 -2085 642 -642 643 -643 520 0 520
0 55 26 c30 14 110 48 178 76 162 67 170 76 186 221 l6 47 -65 0 c-35 0 -111
9 -167 20 -135 26 -258 26 -316 0 -94 -43 -153 -35 -178 25 -12 29 -12 44 -3
78 21 79 72 160 154 242 91 91 153 135 310 218 145 77 384 237 449 301 61 60
106 144 106 198 0 21 -2 38 -3 38 -2 0 -40 -22 -84 -48 -151 -91 -291 -121
-473 -103 -169 18 -175 19 -199 45 -28 30 -30 79 -6 127 10 19 48 64 86 101
60 59 87 76 254 157 143 70 199 103 239 141 50 47 112 148 104 169 -1 6 -32
-8 -67 -31 -108 -69 -219 -97 -381 -98 -161 -1 -268 -46 -363 -152 -72 -81
-112 -108 -161 -108 -39 0 -70 24 -86 66 -25 65 4 320 56 504 71 245 163 351
459 529 105 63 219 135 255 160 113 79 248 231 288 324 7 15 12 48 12 73 l0
46 -53 -46 c-69 -59 -118 -80 -247 -106 -103 -21 -203 -27 -350 -21 -63 3 -86
-1 -141 -23 -78 -31 -123 -33 -166 -6 -76 46 -83 141 -17 237 107 156 541 453
965 662 131 64 199 113 224 160 30 60 -20 70 -145 30 -92 -30 -100 -31 -250
-27 -131 3 -160 6 -187 23 -65 38 -67 99 -6 174 63 76 140 127 305 202 175 79
208 106 208 166 l0 36 -86 -7 c-99 -7 -150 3 -183 38 -60 64 -7 168 150 299
85 70 138 101 235 136 l79 29 -80 6 c-143 12 -195 44 -195 118 0 50 50 105
172 188 115 80 208 157 208 174 0 8 -12 22 -27 32 -54 35 -122 106 -133 138
-21 64 20 113 102 123 24 3 50 12 60 20 27 24 54 100 92 258 20 83 43 164 52
182 19 37 58 56 105 51 27 -2 34 -8 40 -33 4 -16 22 -99 40 -184 41 -191 52
-210 133 -226 89 -18 128 -74 95 -138 -6 -12 -36 -47 -66 -78 -64 -66 -61 -73
44 -93 106 -20 133 -41 133 -106 0 -47 -23 -82 -95 -146 l-65 -59 27 -39 c16
-21 78 -76 140 -122 77 -58 120 -98 138 -127 31 -55 33 -114 4 -151 -22 -28
-77 -61 -86 -52 -4 3 -12 -2 -19 -11 -10 -15 -7 -21 29 -42 100 -59 226 -170
273 -241 34 -51 38 -118 10 -149 -31 -34 -81 -44 -184 -38 l-95 7 6 -42 c8
-62 44 -89 212 -163 187 -82 258 -122 322 -180 181 -162 55 -320 -219 -276
-122 19 -268 14 -268 -10 0 -13 83 -52 165 -79 137 -44 367 -172 523 -291 l67
-51 200 6 c110 3 631 6 1158 6 l957 0 0 963 0 963 -750 722 -750 722 -2138 0
-2137 0 -752 -722z"/>
<path d="M4086 12344 c-33 -138 -67 -233 -97 -276 -25 -34 -89 -67 -134 -68
l-30 -1 31 -27 c18 -15 57 -49 88 -75 50 -43 56 -52 56 -87 0 -33 -8 -47 -55
-98 -30 -33 -108 -96 -173 -141 -130 -89 -170 -125 -152 -136 6 -4 55 -11 108
-15 143 -13 192 -36 192 -93 0 -42 -52 -88 -126 -111 -97 -30 -176 -74 -254
-139 -72 -60 -140 -138 -140 -159 0 -7 36 -8 114 -4 130 8 150 3 172 -49 21
-51 17 -105 -12 -163 -34 -69 -62 -88 -229 -162 -147 -65 -249 -129 -285 -181
-12 -16 -20 -32 -18 -34 2 -2 71 -5 153 -6 138 -1 156 1 222 25 119 43 216 28
247 -39 55 -114 -28 -210 -299 -347 -528 -265 -957 -588 -928 -698 8 -30 28
-31 95 -2 61 25 70 26 253 27 163 1 203 4 285 24 115 28 107 25 200 100 64 52
80 61 109 59 28 -3 38 -10 54 -42 63 -121 13 -263 -155 -441 -90 -95 -176
-158 -403 -295 -93 -57 -192 -121 -220 -142 -150 -118 -228 -298 -271 -618 -9
-71 -14 -141 -10 -156 7 -28 8 -27 95 62 134 136 213 168 463 183 166 11 220
27 333 101 79 51 133 62 164 31 62 -62 -19 -266 -148 -367 -31 -24 -108 -69
-171 -100 -231 -112 -239 -117 -308 -189 l-67 -69 65 -10 c36 -5 117 -9 180
-10 105 0 122 3 197 31 45 17 102 45 127 63 97 66 151 73 197 24 21 -22 24
-35 23 -98 0 -98 -34 -167 -129 -262 -77 -77 -292 -225 -465 -320 -159 -86
-232 -138 -308 -218 -64 -68 -133 -179 -119 -193 4 -3 30 4 59 17 72 31 179
36 298 15 187 -33 212 -35 274 -23 57 12 59 12 78 -12 19 -23 20 -36 16 -135
-9 -189 -38 -222 -289 -331 -230 -99 -388 -186 -450 -248 -46 -45 -116 -168
-134 -233 -8 -27 -2 -28 130 -13 167 19 302 59 423 126 111 60 203 55 274 -16
32 -32 38 -44 38 -81 0 -57 -42 -131 -114 -201 -103 -101 -220 -156 -397 -187
-64 -11 -135 -28 -159 -36 -49 -17 -90 -51 -90 -73 0 -8 38 -50 84 -93 92 -88
116 -126 116 -189 0 -81 -33 -117 -170 -185 -197 -98 -308 -195 -366 -320 -43
-93 -120 -324 -134 -403 -16 -90 6 -172 47 -172 8 0 49 32 90 71 130 123 386
275 588 348 74 27 116 34 252 46 283 25 358 54 503 189 127 119 200 148 243
95 18 -23 19 -42 14 -779 -5 -819 -10 -900 -62 -1057 -33 -99 -58 -134 -156
-228 -254 -241 -293 -285 -411 -465 -126 -191 -197 -276 -292 -347 -33 -25
-65 -50 -71 -55 -5 -4 583 -8 1305 -8 l1315 1 -80 42 c-117 61 -162 96 -237
180 -78 87 -152 145 -283 222 -205 120 -332 287 -392 514 -26 96 -26 97 -35
721 -5 344 -6 654 -3 689 7 80 26 116 66 130 38 13 83 -4 174 -68 97 -68 136
-75 380 -67 191 6 217 5 290 -14 111 -27 289 -119 490 -250 94 -62 196 -125
227 -141 64 -32 113 -38 122 -13 19 51 -5 182 -70 373 -56 165 -94 250 -134
301 -42 53 -137 127 -238 185 -115 67 -172 139 -172 218 0 32 28 85 68 129
134 146 84 222 -176 264 -116 18 -214 51 -290 96 -117 69 -232 212 -232 287 0
80 77 142 178 142 49 1 72 -6 147 -45 50 -25 126 -57 170 -71 116 -38 375 -70
375 -47 0 5 -10 35 -23 68 -58 148 -140 225 -340 323 -78 38 -194 90 -257 116
-63 25 -132 57 -152 70 -76 50 -120 181 -98 296 20 107 68 117 161 34 101 -90
146 -107 313 -116 155 -8 188 -16 259 -65 49 -34 85 -49 94 -41 10 11 -40 167
-86 262 -93 195 -193 291 -433 417 -208 110 -460 287 -520 366 -47 61 -78 121
-85 164 -4 30 -1 38 23 57 38 30 73 24 217 -35 133 -55 211 -65 327 -40 95 20
164 20 223 0 92 -31 101 2 25 82 -73 77 -184 148 -380 242 -145 70 -175 89
-231 144 -79 78 -137 187 -137 257 0 39 5 52 28 73 75 70 111 68 347 -25 105
-41 244 -92 310 -112 66 -21 144 -51 174 -68 102 -57 211 -67 211 -18 0 42
-43 240 -71 327 -56 176 -149 275 -389 419 -91 54 -198 121 -239 148 -137 92
-310 276 -370 395 -38 75 -40 171 -5 206 24 24 64 19 145 -18 137 -62 311 -97
574 -115 106 -8 168 -17 212 -33 53 -18 64 -19 78 -8 38 32 -10 114 -155 263
-112 117 -211 199 -345 286 -136 89 -257 151 -360 186 -176 60 -255 120 -255
194 0 45 8 53 75 76 73 26 175 29 300 11 116 -17 174 -12 203 17 13 14 13 19
-4 49 -28 48 -137 116 -319 197 -195 87 -226 107 -262 168 -36 61 -39 147 -7
190 21 28 22 28 148 31 69 1 126 7 126 12 0 39 -189 209 -279 250 -125 59
-118 128 20 201 32 18 59 38 59 45 0 23 -59 82 -138 137 -90 63 -167 142 -188
193 -24 57 -11 88 62 146 35 29 71 62 79 75 18 27 16 28 -58 37 -99 12 -157
64 -157 142 0 31 8 44 60 94 33 32 60 60 60 63 0 2 -19 7 -43 9 -95 11 -137
71 -182 261 l-30 129 -29 -118z"/>
<path d="M5746 8153 c52 -117 114 -369 114 -463 0 -100 -52 -145 -161 -138
-51 3 -86 14 -174 56 -61 29 -117 52 -124 52 -22 0 -182 57 -370 131 -95 38
-181 69 -190 69 -10 0 -26 -7 -37 -14 -18 -15 -18 -17 19 -90 59 -115 110
-156 339 -269 279 -139 423 -261 435 -370 5 -38 2 -48 -23 -76 -35 -39 -89
-53 -141 -38 -51 14 -182 14 -274 -1 -100 -16 -182 -4 -309 48 -52 21 -97 36
-99 34 -9 -8 56 -88 104 -129 72 -62 274 -194 401 -264 206 -112 227 -126 301
-195 119 -111 209 -261 268 -446 71 -227 -21 -303 -214 -177 l-64 42 -141 6
c-177 9 -241 30 -340 112 l-49 41 6 -62 c9 -100 33 -125 182 -183 141 -56 384
-177 450 -223 86 -62 139 -126 185 -221 55 -114 69 -169 50 -203 -27 -49 -73
-64 -170 -57 -197 15 -371 62 -510 137 -61 32 -82 39 -113 35 -73 -10 -85 -43
-38 -110 83 -121 215 -194 408 -227 207 -35 297 -85 323 -179 20 -76 -20 -180
-100 -256 -63 -61 -35 -113 107 -197 141 -82 266 -203 311 -298 63 -136 144
-390 163 -514 15 -93 0 -162 -42 -202 -26 -25 -38 -29 -87 -29 -74 1 -137 33
-377 189 -198 129 -345 206 -445 232 -55 14 -95 15 -265 9 -263 -9 -337 7
-466 101 -26 19 -52 34 -58 34 -9 0 -11 -154 -8 -647 4 -698 5 -704 60 -855
60 -164 158 -275 342 -383 99 -58 142 -92 259 -205 125 -121 151 -141 236
-182 52 -26 136 -59 185 -74 83 -24 111 -27 374 -36 l285 -9 85 84 c47 46 386
373 754 726 l667 642 0 1992 0 1992 -638 638 -637 637 -379 0 c-356 0 -378 -1
-370 -17z"/>
<path d="M497 4623 c-4 -3 -7 -389 -7 -857 l1 -851 751 -722 751 -723 276 0
c318 0 372 8 498 70 112 55 208 152 320 324 171 262 186 280 385 462 255 233
258 247 258 1307 0 367 -3 667 -7 667 -5 0 -53 -41 -107 -91 -160 -145 -247
-177 -540 -199 -164 -12 -233 -33 -411 -121 -152 -76 -301 -175 -373 -248 -77
-77 -99 -91 -152 -91 -57 0 -101 26 -126 76 -30 61 -26 203 10 318 33 110 90
263 124 335 47 101 183 224 352 320 l55 31 -1026 0 c-564 0 -1029 -3 -1032 -7z"/>
<path d="M12510 12765 c-469 -57 -811 -209 -1056 -468 -183 -193 -296 -428
-346 -721 -17 -104 -20 -147 -15 -306 12 -381 108 -626 356 -908 133 -151 322
-298 766 -595 647 -433 764 -518 895 -647 194 -192 280 -400 280 -674 -1 -444
-192 -717 -582 -830 -142 -41 -284 -58 -488 -59 -260 -1 -446 31 -644 109
-312 125 -449 318 -481 677 l-7 77 -115 0 -115 0 6 -67 c15 -180 19 -288 25
-668 l6 -410 145 -41 c378 -109 721 -154 1172 -155 401 0 690 44 967 148 579
216 896 620 962 1225 14 129 6 403 -15 523 -58 324 -210 590 -464 819 -132
117 -281 223 -807 571 -591 392 -709 476 -825 594 -96 98 -148 180 -187 296
-26 76 -27 90 -28 275 0 177 2 202 23 270 83 266 260 411 584 482 92 20 132
22 368 23 170 0 292 -5 340 -13 156 -26 286 -64 386 -112 84 -41 111 -60 166
-119 103 -108 163 -258 176 -440 l7 -86 97 -3 96 -3 0 575 -1 575 -21 5 c-94
23 -527 69 -806 86 -225 14 -691 11 -820 -5z"/>
<path d="M15780 11843 c-84 -149 -206 -339 -294 -458 -109 -147 -317 -356
-446 -448 -90 -63 -396 -227 -426 -227 -11 0 -14 -19 -14 -80 l0 -80 261 0
262 0 -7 -477 c-12 -832 -10 -1905 3 -2043 32 -326 113 -522 291 -700 106
-106 169 -147 303 -198 158 -59 246 -73 492 -79 193 -5 235 -3 344 16 212 36
405 112 556 219 81 57 176 141 205 182 l20 28 -31 74 c-17 40 -32 74 -34 76
-1 1 -36 -13 -77 -32 -99 -45 -215 -81 -310 -96 -100 -16 -352 -8 -431 14
-276 76 -400 267 -437 671 -6 67 -10 551 -10 1228 l0 1117 670 0 670 0 0 245
0 245 -670 0 -670 0 0 440 0 440 -88 0 -88 0 -44 -77z"/>
<path d="M19228 11150 c-346 -37 -633 -161 -850 -368 -132 -127 -231 -273
-288 -430 l-30 -82 94 -55 c52 -30 96 -55 99 -55 3 0 23 30 45 68 102 171 275
307 472 370 97 31 172 42 292 42 362 0 629 -175 723 -474 30 -92 48 -277 43
-436 l-3 -105 -285 -87 c-389 -120 -572 -180 -860 -283 -382 -137 -520 -213
-673 -375 -143 -152 -230 -331 -262 -546 -46 -304 12 -603 160 -829 153 -234
390 -371 727 -421 164 -24 433 -15 578 19 233 56 426 158 605 319 l49 45 38
-78 c21 -42 60 -101 87 -131 194 -212 599 -246 898 -76 99 56 220 163 320 282
46 54 83 102 83 105 0 3 -29 37 -63 74 l-62 69 -45 -36 c-53 -42 -122 -61
-188 -51 -143 21 -211 123 -233 350 -6 67 -5 242 2 525 7 234 12 675 13 980 1
484 -1 571 -17 680 -47 326 -127 505 -306 680 -212 207 -494 304 -919 315 -86
2 -196 0 -244 -5z m602 -2685 l0 -664 -69 -41 c-249 -148 -645 -185 -868 -81
-126 59 -223 185 -259 337 -24 99 -22 276 5 379 33 127 83 218 165 300 116
116 338 220 776 366 129 42 238 75 242 73 4 -3 8 -304 8 -669z"/>
<path d="M30955 11143 c-423 -37 -782 -172 -1066 -401 -304 -245 -535 -623
-644 -1054 -148 -584 -89 -1259 152 -1730 265 -518 736 -825 1393 -910 119
-15 487 -15 600 1 329 46 603 141 828 287 499 326 804 891 863 1604 14 168 7
409 -16 585 -138 1043 -838 1635 -1920 1623 -82 -1 -168 -3 -190 -5z m388
-469 c81 -18 212 -76 284 -125 156 -108 315 -343 397 -590 147 -439 172 -1038
65 -1534 -77 -358 -252 -655 -474 -804 -145 -97 -303 -136 -520 -128 -199 7
-315 42 -456 138 -261 177 -435 531 -511 1040 -20 133 -23 192 -22 439 0 308
12 432 60 650 71 315 179 529 358 705 133 132 277 200 475 225 89 12 255 4
344 -16z"/>
<path d="M23960 11130 c-290 -41 -587 -150 -820 -303 l-85 -56 -3 146 c-3 159
-6 170 -61 192 -23 10 -38 6 -124 -34 -128 -59 -236 -90 -442 -125 -241 -40
-383 -53 -592 -54 l-183 -1 0 -111 0 -111 103 -6 c204 -13 321 -67 371 -171
58 -123 70 -421 63 -1616 -6 -903 -11 -1055 -43 -1215 -30 -156 -96 -248 -218
-308 -69 -34 -194 -67 -253 -67 l-43 0 0 -96 0 -96 38 6 c225 34 1203 42 1685
15 l237 -14 0 93 0 92 -42 0 c-121 1 -293 65 -354 133 -80 88 -110 208 -124
507 -5 107 -10 711 -10 1341 0 905 3 1149 13 1157 21 17 179 80 258 102 158
44 245 54 459 54 189 -1 213 -3 302 -27 143 -38 228 -86 323 -181 136 -137
197 -293 232 -600 16 -131 18 -250 18 -906 0 -904 -11 -1111 -71 -1301 -27
-87 -78 -153 -150 -195 -54 -32 -167 -69 -258 -85 l-66 -11 0 -89 0 -90 48 6
c246 29 989 44 1362 26 135 -6 314 -14 398 -18 l152 -6 0 91 0 92 -46 0 c-69
0 -181 28 -261 66 -118 56 -166 137 -199 335 -15 91 -18 238 -25 1144 -4 572
-10 1056 -13 1075 -3 19 -10 82 -16 140 -12 114 -46 265 -80 351 -152 384
-444 619 -886 710 -113 23 -478 35 -594 19z"/>
<path d="M34746 11084 c-207 -87 -754 -174 -1096 -174 l-160 0 0 -118 0 -119
93 -6 c199 -13 336 -73 385 -168 54 -107 55 -117 59 -1244 5 -1295 -3 -1514
-68 -1689 -30 -81 -114 -166 -202 -206 -66 -30 -192 -60 -252 -60 l-35 0 0
-101 0 -100 43 6 c131 18 353 27 772 32 430 5 588 2 1188 -24 l147 -6 0 106 0
107 -77 0 c-113 0 -248 17 -328 41 -187 56 -247 125 -282 322 -14 81 -17 247
-20 1384 l-4 1292 53 31 c29 16 89 42 133 57 73 25 94 27 240 27 185 1 242
-10 373 -75 93 -46 202 -140 254 -221 l32 -49 84 3 84 3 164 300 c161 295 164
301 164 362 l0 61 -57 46 c-161 128 -378 196 -627 196 -318 0 -622 -113 -873
-327 l-43 -36 0 172 0 171 -36 15 c-44 18 -36 19 -108 -11z"/>
<path d="M21200 5033 c-51 -17 -110 -58 -140 -96 -82 -104 -90 -276 -17 -384
79 -117 241 -162 402 -112 55 17 78 31 120 73 66 66 90 130 89 238 -2 183
-128 299 -327 298 -47 -1 -101 -8 -127 -17z"/>
<path d="M31920 5033 c-51 -17 -110 -58 -140 -96 -82 -104 -90 -276 -17 -384
79 -117 241 -162 402 -112 55 17 78 31 120 73 66 66 90 130 89 238 -2 183
-128 299 -327 298 -47 -1 -101 -8 -127 -17z"/>
<path d="M14142 4894 l3 -69 52 -7 c111 -16 207 -68 238 -128 37 -72 38 -97
45 -1175 8 -1131 9 -1161 60 -1359 103 -402 382 -650 833 -741 412 -83 947
-47 1242 83 301 132 486 356 571 690 55 216 56 241 64 1307 5 679 11 1010 19
1055 17 95 54 165 110 205 50 36 135 65 194 65 l37 0 0 71 0 72 -72 -8 c-220
-22 -756 -22 -1005 0 l-73 7 0 -71 c0 -71 0 -71 28 -71 39 0 120 -23 168 -48
56 -28 90 -72 111 -140 17 -53 18 -133 18 -1107 0 -806 -3 -1071 -13 -1140
-47 -326 -156 -509 -364 -608 -114 -55 -190 -74 -354 -88 -94 -9 -160 -9 -259
0 -241 21 -385 74 -503 186 -80 76 -125 147 -162 258 -72 214 -84 448 -77
1537 6 885 8 924 61 1015 44 75 159 135 258 135 l38 0 0 71 0 72 -62 -8 c-189
-22 -959 -21 -1151 0 l-58 7 3 -68z"/>
<path d="M33711 4458 c-244 -415 -411 -589 -683 -713 l-88 -40 0 -47 0 -48
165 -2 165 -3 3 -835 c3 -943 0 -901 82 -1067 57 -117 135 -197 238 -248 213
-103 540 -110 787 -14 104 40 227 124 281 193 21 27 21 28 4 74 -10 26 -19 48
-20 50 -1 1 -31 -11 -66 -28 -100 -47 -192 -63 -327 -58 -227 10 -328 86 -389
293 -16 55 -18 133 -21 853 l-3 792 426 0 425 0 0 155 0 155 -425 0 -425 0 -2
283 -3 282 -52 3 c-50 3 -54 2 -72 -30z"/>
<path d="M19091 3965 c-153 -27 -354 -108 -481 -194 l-45 -31 -5 101 c-4 87
-8 103 -25 115 -17 11 -29 8 -85 -18 -136 -63 -367 -105 -627 -115 l-153 -6 0
-67 0 -67 78 -6 c42 -3 95 -12 116 -19 54 -17 111 -74 125 -123 23 -78 33
-473 27 -1055 -6 -589 -12 -691 -47 -785 -34 -91 -129 -154 -258 -171 l-51 -7
0 -59 c0 -48 3 -59 14 -55 8 3 106 11 218 18 195 11 562 8 886 -8 l132 -6 0
55 0 55 -47 7 c-148 19 -226 76 -256 183 -29 101 -36 331 -37 1091 l0 723 63
28 c132 59 302 87 463 78 216 -14 346 -90 424 -252 65 -133 80 -287 80 -830 0
-596 -17 -802 -75 -902 -30 -50 -117 -98 -213 -116 l-62 -12 0 -58 c0 -48 3
-58 15 -54 8 4 121 11 252 18 224 11 475 9 836 -7 l147 -7 0 55 0 54 -72 12
c-105 16 -174 55 -209 117 -15 28 -33 77 -39 110 -8 38 -15 319 -20 770 -9
795 -12 838 -80 1005 -82 205 -262 355 -498 417 -123 32 -359 41 -491 18z"/>
<path d="M21568 3975 c-15 -16 -190 -66 -290 -84 -144 -27 -369 -51 -470 -51
l-78 0 0 -70 0 -70 38 0 c59 0 170 -27 207 -50 50 -31 73 -89 86 -213 7 -70 9
-361 6 -849 -5 -875 -5 -876 -95 -971 -40 -41 -110 -72 -187 -82 -100 -13 -95
-9 -95 -71 l0 -55 168 8 c214 10 705 10 940 0 l182 -8 0 61 0 60 -38 0 c-55 0
-166 33 -212 64 -45 30 -73 78 -90 157 -17 75 -25 1473 -11 1879 l11 304 -22
23 c-21 22 -39 29 -50 18z"/>
<path d="M32288 3975 c-15 -16 -190 -66 -290 -84 -144 -27 -369 -51 -470 -51
l-78 0 0 -70 0 -70 38 0 c59 0 170 -27 207 -50 92 -57 98 -129 92 -1071 -4
-651 -6 -742 -21 -809 -22 -93 -35 -117 -84 -162 -44 -40 -109 -65 -197 -76
l-60 -7 -3 -58 -3 -58 163 8 c210 10 702 10 936 0 l182 -8 0 61 0 60 -38 0
c-55 0 -166 33 -212 64 -45 30 -73 78 -90 157 -17 76 -25 1444 -11 1863 l11
320 -22 23 c-21 22 -39 29 -50 18z"/>
<path d="M25725 3960 c-33 -6 -100 -21 -149 -35 -435 -125 -704 -476 -803
-1050 -23 -134 -23 -432 0 -565 93 -543 405 -850 933 -921 54 -7 156 -9 263
-6 145 4 194 10 279 31 230 58 426 168 552 309 l34 39 -29 55 c-17 30 -34 57
-38 60 -4 3 -50 -14 -102 -36 -172 -76 -361 -108 -565 -98 -453 25 -699 271
-775 775 -8 53 -15 134 -15 180 l0 82 792 0 791 0 -7 169 c-7 201 -25 312 -70
443 -99 290 -292 466 -602 549 -63 17 -115 22 -254 25 -96 1 -202 -1 -235 -6z
m195 -271 c221 -35 355 -203 375 -470 3 -41 8 -93 10 -116 l5 -43 -500 0 -500
0 6 73 c9 102 46 242 84 317 97 192 283 277 520 239z"/>
<path d="M30018 3955 c-310 -50 -506 -210 -579 -470 -27 -96 -32 -296 -10
-385 19 -78 72 -185 125 -252 71 -90 160 -156 449 -336 148 -92 298 -189 335
-217 125 -94 169 -185 159 -323 -17 -224 -188 -328 -506 -308 -181 11 -270 46
-362 142 -81 86 -129 203 -129 314 l0 40 -86 0 -86 0 6 -32 c7 -40 26 -385 29
-528 l2 -104 87 -28 c199 -63 446 -95 665 -84 475 22 766 202 858 532 26 92
31 295 11 388 -33 147 -116 272 -252 382 -38 30 -206 137 -373 237 -418 249
-471 302 -471 464 0 119 41 208 118 257 73 45 139 60 262 60 295 0 455 -118
491 -360 l11 -74 79 0 78 0 -5 213 c-3 116 -2 260 3 319 l9 108 -53 10 c-200
42 -700 62 -865 35z"/>
<path d="M27978 3950 c-80 -47 -530 -120 -740 -120 l-78 0 0 -74 0 -73 78 -6
c130 -9 206 -49 239 -125 24 -58 32 -269 33 -847 0 -598 -10 -863 -35 -960
-30 -114 -104 -177 -238 -203 l-87 -17 0 -58 0 -58 148 8 c190 10 782 10 1030
0 l192 -8 0 64 0 64 -82 7 c-174 14 -271 49 -314 114 -47 69 -47 79 -51 979
l-4 851 54 26 c73 34 127 45 222 46 155 0 260 -44 360 -152 61 -67 64 -68 113
-68 l50 0 106 196 c123 226 127 245 69 294 -100 83 -234 123 -408 122 -192 -1
-357 -56 -507 -170 l-68 -51 0 104 c0 93 -2 105 -19 115 -24 12 -41 12 -63 0z"/>
<path d="M22070 3856 l0 -76 33 0 c103 0 171 -54 233 -185 23 -49 232 -569
465 -1155 232 -586 425 -1068 428 -1072 4 -4 58 1 121 12 63 11 118 20 121 20
4 0 208 453 454 1008 462 1038 544 1216 591 1271 37 44 119 89 177 97 l47 7 0
42 c0 23 3 57 6 75 l7 32 -59 -6 c-226 -25 -483 -25 -841 -1 l-83 5 0 -68 0
-68 62 -12 c140 -26 203 -89 194 -193 -3 -31 -17 -89 -32 -130 -29 -79 -512
-1280 -518 -1286 -2 -2 -20 45 -41 104 -21 60 -119 320 -217 578 -218 568
-247 653 -255 731 -7 71 9 109 60 148 31 24 129 56 169 56 16 0 18 9 18 71 l0
70 -77 -6 c-307 -23 -807 -23 -1010 0 l-53 6 0 -75z"/>
<path d="M34990 3856 l0 -76 38 0 c46 0 128 -38 164 -76 40 -43 75 -127 537
-1311 l423 -1082 -72 -188 c-249 -642 -383 -797 -674 -780 -152 8 -259 66
-322 173 -22 38 -30 44 -59 44 -31 0 -43 -11 -154 -147 -150 -183 -152 -191
-58 -259 79 -59 113 -76 212 -107 138 -43 319 -57 481 -37 372 47 599 237 769
643 24 59 87 221 139 360 52 139 286 765 521 1392 234 627 438 1161 453 1188
59 109 159 187 240 187 l32 0 0 76 0 75 -42 -6 c-24 -3 -137 -10 -253 -15
-193 -9 -309 -6 -597 15 l-78 5 0 -73 0 -74 52 -6 c64 -8 146 -48 173 -84 13
-18 21 -48 23 -88 3 -56 -13 -109 -248 -810 -138 -412 -254 -753 -258 -757 -5
-5 -23 38 -41 94 -18 56 -133 370 -256 698 -123 327 -233 628 -245 668 -26 86
-24 159 7 200 27 37 117 81 181 89 l52 6 0 68 0 69 -72 -5 c-325 -23 -810 -23
-1015 0 l-53 6 0 -75z"/>
</g>
</svg>
